<svg xmlns="http://www.w3.org/2000/svg" width="100.014" height="100.014" viewBox="0 0 631 631">
  <defs>
    <style>
      .cls-1 {
        fill: #090707;
        fill-rule: evenodd;
      }
    </style>
  </defs>
  <path id="Color_Fill_1" data-name="Color Fill 1" class="cls-1" d="M279,17h29c10.942,3.576,33.6,16.35,37,27,3.9,12.222-2.035,28.273-3,37,22.911,15.478,39.747,43.014,48,73,2.537,9.22-.088,17.243,3,25,5.65,14.189,19.468,28.877,16,48l-6,5c-4.527.329-6.727,1.39-10-1-9.94-3.825-12.756-22.327-17-32-2.766-6.3-6.982-13.435-9-21q-0.5-8.5-1-17c-5.668-20.66-15.224-39.253-30-51-5.807-4.616-8.837-13.962-18-15-2.408,1.438-7.389.191-12,0a24.955,24.955,0,0,1-4,5c-0.363,30.6,6.939,59.566,14,83v7c3.739,12.553,16.271,14.564,13,33l-6,5a56.259,56.259,0,0,1-12-1c-5.564-8.907-13.885-16.955-18-27-6.028-14.713-7.161-33.166-11-49-2.573-10.615-1.869-20.231-4-30-1.234-5.656,1.608-13.909-1-18-6.225-5.138-13.416-8.21-20-13-10.728-7.8-20.813-18.447-30-28-0.176-24.562,9.424-37.234,28-42C263.108,17.92,272.793,20.846,279,17Zm8,24c-10.616,6.115-32.88-1.289-35,13,13.622,4.733,20.293,21.91,35,25,8.065-11.143,19.233-7.493,33-12a117.413,117.413,0,0,0,1-14C310.983,46.471,304.376,41,287,41Zm163,89c54.288-.834,92.649,3.51,108,41,6.216,15.181.28,29.762-4,42-1.287,3.681-6,13-6,13,12.705,9.987,39.218,23.866,47,37,11.534,19.465,9,80.363,9,112,0,22.545,2.372,63.4-13,69-8.509,8.178-18.26-3.841-18-13,8.364-10.29,10.145-62.817,6-82-4.045-18.719,2.49-43.22-2-61-0.842-3.333-2.1-9.744-4-13-2.038-3.49-35.886-27.615-41-29-7.389-2-15.239,2.445-22,3-2.9,4.189-8.218,9.469-12,13-1.369,15.744-.99,26.635,3,41q1,14,2,28c0.372,1.207,2.572,5.3,3,7v9c1.385,4.786,5.142,10.513,7,15,4.023,9.716,5.054,17.281,9,27,6.576,16.195,24.054,35.061,20,57l-6,5a56.259,56.259,0,0,1-12-1c-11.618-18.535-17.612-40-27-61-4.694-10.5-11.845-23.758-15-35v-9c-1.694-7.034-3.216-16.9-5-25V309c-3.362-12.772-8.346-33.577-4-50,2.515-9.5,7.838-15.218,13-22,2.517-3.307,6.315-3.547,8-8H471c-6.3-4.833-16.13-4.526-23-9-16.47-10.727-42.7-43.716-23-71C431.219,140.386,441.575,136.571,450,130Zm7,24c-2.129,2.254-4.442,3.067-7,5-2.976,2.249-4.407,6.338-7,9-0.056,20.99,18.681,32.545,35,37,11.849,3.234,20.989-5.545,32-2,4.729,1.523,5.061,6.61,10,8,3.243-2.856,8.925-2.9,11-7,8.633-11.857,3.977-24.128-3-33C514.736,154.133,487.629,153.6,457,154ZM174,631c-1.432-9.515-8.423-14.757-11-23-4.112-13.152,3.133-47.97,7-54,4.095-6.385,11.746-10.724,16-17h-1c-10.889-8.429-25.344-9.344-30-24-3.251-10.235,2.492-33.332,5-40,1.747-4.644,6.75-9,8-14,2.089-8.362-4.312-27.546-6-34q-0.5-26.5-1-53c-4.611-18.53-14.637-27.969-24-41-2.879-4.007-5.136-11.138-9-14-3.13-2.318-29.316-11.359-34-12-3.194,2.9-8.617,3.219-12,6-5.072,4.169-12.883,18.863-15,26-7.257,24.467,5.984,68.127,11,86,4.632,16.5,2.474,32.029,7,48,3.628,12.8,15.1,16.534,12,34l-6,5a56.26,56.26,0,0,1-12-1c-5.411-8.561-13.8-16.793-17-27-6.889-21.975-5.729-46.791-12-69-5.026-17.8-8-36.975-8-61V335c2.166-8.934,7.277-22.774,12-30,3.154-4.826,8.786-6.7,11-13-11.938-7.572-31.258-23.974-35-39V239c-0.007-25.538,6.606-49.852,21-60,3.512-2.476,7.487-2.356,12-4,5.507-2.006,21.235-9.6,30-4,7.251,2.58,4.145,8.9,9,13,3.482,2.942,9.3,4.369,12,8,11.919,16,20.209,51.987,12,81-1.917,6.774-6.469,8.807-9,14,8.626,2.237,20.909,6.14,28,11,5.05,3.461,7.438,11.936,11,17,10.9,15.489,23.557,27.346,29,49q0.5,27.5,1,55c2.086,7.917,4.183,18.682,6,28h1c7.617-5.63,24.233-13,40-9,4.332,1.1,6.552,3.439,12,4,0.5-29.907-15.715-52.368-24-75-3.165-8.645-.366-17.366-3-27-7.213-26.385-11.461-60.9-3-89-24.152.273-44.282-18.7-50-37V197q0.5-8.5,1-17c4.747-12.683,8.531-15.593,17-24,42.01-3.734,74.585,8.522,91,33,10.769,16.059,8.493,43.687-8,52v1h1c2.108,3.16,5.814,4.156,8,7,8.4,10.926,18.337,23.125,25,35,2.653,4.728,1.765,11.2,4,16,0.992,2.128,3.83,3.234,5,5,4.894,7.386,5.19,15.265,9,24,2.425,5.561,6.964,12.329,9,19,5.953,19.507,7.259,42.87,12,64,3.178,14.163,2,30.459,2,47v19c-0.934,2.637-4.2,4.963-7,6-3.818,3.1-7.539,1.161-12,0l-5-6c0.585-31-.983-59.213-7-83V383c-2.688-11.648-4.323-24.093-9-35-1.29-3.007-4.814-5.957-6-9-2.986-7.663-2.992-13.624-7-20-1-1.584-4.091-3.286-5-5-3.345-6.3-3.381-16.038-7-22-1.79-2.948-6.1-5.212-8-8-3.93-5.772-5.809-11.52-10-17-1.839-2.4-5.847-3.791-8-6-6.02-.032-12.053,1.9-14,6-7.907,12.064,3,55.29,6,66,2.632,9.389.236,18.2,3,27,2.969,9.448,8.694,20.375,13,29l3,13c2.159,5.665,6,15.779,8,22v40c0.682,3.035.738,9.813,2,13,3.234,8.17,8.182,13.221,6,25-6.566,4.024-12.7,7.521-14,17,10.813,5.378,18.365,13.44,26,22l11,9c12.069,15.658,30.616,37.9,25,67l-6,5a56.259,56.259,0,0,1-12-1c-6.432-10.386-6.072-25.775-12-36-6.723-11.6-17.376-18-25-28-6.6-8.664-15.463-19.4-32-15-8.13,2.162-16.006,7.056-23,10-9.935,4.183-17.558,5.8-23,14-4.186,6.3-7.963,27.31-4,37,2.733,6.682,14.869,17.391,8,27C191.988,632.6,179.987,631.132,174,631Zm21-452c-24.92,43.228,33.635,63.46,61,37,0.084-3.1.59-4.023,0-5C250.5,189.362,222.653,178.831,195,179ZM72,197a18.336,18.336,0,0,1-7,3c-1.8,5.387-5.994,9.239-8,14-2.681,6.362-6.215,27.011-2,35,3.691,7,10.443,10.538,17,15,4.969,3.382,4.7,8.223,13,9,4.922-3.441,11.556-5.693,17-8,2.476-27.777,4.717-46.676-14-60C83.084,201.5,80.469,197.23,72,197ZM367,344c-27.482.483-51.72-17.8-42-51l17-35c2.236-3.243,7.108-4.368,10-7,36.86-.82,67.81,17.791,76,46,2.531,8.718-4,30-4,30,3.117,3.207,7.315,4.261,11,7,1.692,1.257,1.676,3.266,3,5l8,7c6.353,8.453,11.882,16.221,18,25,5.355,7.683,15.307,15.276,19,25,5.933,15.622,4.2,34.384,9,52,4.652,17.076,7.476,52.673,3,71-7.96,5.132-21.081,5.87-22-7-5.805-9.749,1.96-29.946-1-42-2.417-9.844-4.694-22.17-7-32-1.966-8.383.444-14.357-2-22-8.166-25.542-31.785-48.6-49-66-6.559-.161-19.023-0.153-23,3-7.238,9.217-6,31.411-6,47a133.531,133.531,0,0,0,5,38q1,12.5,2,25c2.926,12.384,5.3,24.754,10,36,6.4,15.313,23.154,26.711,8,43a56.259,56.259,0,0,1-12-1c-11.116-17.59-21.681-37.351-28-60-3.252-11.657-.635-23.61-4-36-4.053-14.924-5-34.034-5-55V372c1.077-4.719.463-11.142,2-17C364.023,351.1,366.285,348.573,367,344Zm-5-68c-6.105,10.563-12.127,19.918-14,35,5.667,3.639,10.968,7.112,19,9h16c3.653,1.3,4.856,5.481,9,7,2.322-1.944,4.242-2.406,6-5a34.239,34.239,0,0,0,6-18c-1.938-2.488-2.136-6.374-4-9C393.4,285.7,375.7,277.713,362,276ZM220,462c-5.074,3.428-22.665,7.492-25,12-4.4,7.055,1.886,21.264-1,30-0.732,2.217-5.874,6.619-5,7,8.7,6.277,20.7-8.5,29,3,5.619-2.377,24.154-10.017,25-16,3.193-4.992,1.168-22.569,1-29l-3-1C236.3,464.3,227.756,462.167,220,462Z"/>
</svg>
